<svg xmlns="http://www.w3.org/2000/svg" viewBox="0 0 1024 1024" width="1024" height="1024">
  <defs>
    <linearGradient id="bg" x1="0" y1="0" x2="1024" y2="1024" gradientUnits="userSpaceOnUse">
      <stop offset="0%" stop-color="#1c2e46"/>
      <stop offset="100%" stop-color="#0c1825"/>
    </linearGradient>
  </defs>
  <!-- Background -->
  <rect width="1024" height="1024" rx="196" fill="url(#bg)"/>
  <ellipse cx="512" cy="140" rx="400" ry="100" fill="rgba(255,255,255,0.03)"/>

  <!-- Corner brackets (detection box) -->
  <path d="M 148 352 L 148 148 L 352 148" fill="none" stroke="#1a8de0" stroke-width="58" stroke-linecap="round" stroke-linejoin="round"/>
  <path d="M 876 352 L 876 148 L 672 148" fill="none" stroke="#1a8de0" stroke-width="58" stroke-linecap="round" stroke-linejoin="round"/>
  <path d="M 148 672 L 148 876 L 352 876" fill="none" stroke="#1a8de0" stroke-width="58" stroke-linecap="round" stroke-linejoin="round"/>
  <path d="M 876 672 L 876 876 L 672 876" fill="none" stroke="#1a8de0" stroke-width="58" stroke-linecap="round" stroke-linejoin="round"/>

  <!-- Crosshair target -->
  <circle cx="512" cy="490" r="110" fill="none" stroke="#0e7fd0" stroke-width="16" opacity="0.2"/>
  <circle cx="512" cy="490" r="66"  fill="none" stroke="#0e7fd0" stroke-width="22" opacity="0.35"/>
  <circle cx="512" cy="490" r="28"  fill="#1a9aee"/>
  <line x1="512" y1="360" x2="512" y2="400" stroke="#0e7fd0" stroke-width="14" stroke-linecap="round" opacity="0.6"/>
  <line x1="512" y1="580" x2="512" y2="620" stroke="#0e7fd0" stroke-width="14" stroke-linecap="round" opacity="0.6"/>
  <line x1="382" y1="490" x2="422" y2="490" stroke="#0e7fd0" stroke-width="14" stroke-linecap="round" opacity="0.6"/>
  <line x1="602" y1="490" x2="642" y2="490" stroke="#0e7fd0" stroke-width="14" stroke-linecap="round" opacity="0.6"/>

  <!-- Dataset label rows -->
  <rect x="348" y="640" width="24" height="24" rx="6" fill="#1a9aee"/>
  <rect x="388" y="643" width="192" height="18" rx="9" fill="#0e7fd0" opacity="0.5"/>
  <rect x="348" y="682" width="24" height="24" rx="6" fill="#1a9aee" opacity="0.65"/>
  <rect x="388" y="685" width="148" height="18" rx="9" fill="#0e7fd0" opacity="0.32"/>
  <rect x="348" y="724" width="24" height="24" rx="6" fill="#1a9aee" opacity="0.42"/>
  <rect x="388" y="727" width="170" height="18" rx="9" fill="#0e7fd0" opacity="0.2"/>

  <!-- Confidence badge -->
  <rect x="148" y="84" width="164" height="54" rx="14" fill="#0078d4"/>
  <text x="230" y="120" font-family="'Segoe UI',system-ui,sans-serif"
        font-size="30" font-weight="700" fill="white" text-anchor="middle">99.2%</text>
</svg>
